<svg width="137" height="25" viewBox="0 0 137 25" fill="none" xmlns="http://www.w3.org/2000/svg">
<path d="M6.075 5.275C6.075 3.95 6.7 3.325 7.85 3.325C8.45 3.325 9 3.5 9.425 3.8L10.45 0.975C9.725 0.474999 8.575 0.249999 7.475 0.249999C4.125 0.249999 2.275 2.225 2.275 5.25V5.85H0.2V8.85H2.275V19H6.175V8.85H9.525V5.85H6.075V5.275ZM16.6488 5.35C14.4988 5.35 12.3238 5.925 10.8488 6.975L12.2488 9.7C13.2238 8.925 14.6988 8.45 16.1238 8.45C18.2238 8.45 19.2238 9.425 19.2238 11.1H16.1238C12.0238 11.1 10.3488 12.75 10.3488 15.125C10.3488 17.45 12.2238 19.2 15.3738 19.2C17.3488 19.2 18.7488 18.55 19.4738 17.325V19H23.1238V11.325C23.1238 7.25 20.7488 5.35 16.6488 5.35ZM16.3488 16.575C14.9738 16.575 14.1488 15.925 14.1488 14.95C14.1488 14.05 14.7238 13.375 16.5488 13.375H19.2238V14.75C18.7738 15.975 17.6488 16.575 16.3488 16.575ZM30.3785 7.325V5.55H26.6535V19H30.5535V12.65C30.5535 10.075 31.9785 8.9 34.1285 8.9C34.4285 8.9 34.6785 8.925 35.0035 8.95V5.35C32.9285 5.35 31.3285 6.025 30.3785 7.325ZM54.5475 5.35C52.5225 5.35 50.7725 6.175 49.6975 7.55C48.7475 6.075 47.1475 5.35 45.2725 5.35C43.5475 5.35 42.0475 5.95 41.0475 7.1V5.55H37.3225V19H41.2225V12.25C41.2225 9.85 42.4475 8.725 44.1725 8.725C45.7975 8.725 46.7225 9.725 46.7225 11.9V19H50.6225V12.25C50.6225 9.85 51.8475 8.725 53.5975 8.725C55.1725 8.725 56.1475 9.725 56.1475 11.9V19H60.0475V11.3C60.0475 7.2 57.7475 5.35 54.5475 5.35ZM73.8646 5.55V7.275C72.8396 5.975 71.2896 5.35 69.4146 5.35C65.6896 5.35 62.6896 7.925 62.6896 11.85C62.6896 15.775 65.6896 18.35 69.4146 18.35C71.1646 18.35 72.6396 17.8 73.6646 16.675V17.25C73.6646 19.675 72.4646 20.925 69.7146 20.925C67.9896 20.925 66.1146 20.325 64.9646 19.4L63.4146 22.2C64.9896 23.425 67.4646 24.05 70.0146 24.05C74.8646 24.05 77.5646 21.75 77.5646 16.75V5.55H73.8646ZM70.1896 15.15C68.1396 15.15 66.6396 13.825 66.6396 11.85C66.6396 9.875 68.1396 8.55 70.1896 8.55C72.2396 8.55 73.7146 9.875 73.7146 11.85C73.7146 13.825 72.2396 15.15 70.1896 15.15ZM86.6195 5.35C84.4695 5.35 82.2945 5.925 80.8195 6.975L82.2195 9.7C83.1945 8.925 84.6695 8.45 86.0945 8.45C88.1945 8.45 89.1945 9.425 89.1945 11.1H86.0945C81.9945 11.1 80.3195 12.75 80.3195 15.125C80.3195 17.45 82.1945 19.2 85.3445 19.2C87.3195 19.2 88.7195 18.55 89.4445 17.325V19H93.0945V11.325C93.0945 7.25 90.7195 5.35 86.6195 5.35ZM86.3195 16.575C84.9445 16.575 84.1195 15.925 84.1195 14.95C84.1195 14.05 84.6945 13.375 86.5195 13.375H89.1945V14.75C88.7445 15.975 87.6195 16.575 86.3195 16.575ZM113.849 5.35C111.824 5.35 110.074 6.175 108.999 7.55C108.049 6.075 106.449 5.35 104.574 5.35C102.849 5.35 101.349 5.95 100.349 7.1V5.55H96.6242V19H100.524V12.25C100.524 9.85 101.749 8.725 103.474 8.725C105.099 8.725 106.024 9.725 106.024 11.9V19H109.924V12.25C109.924 9.85 111.149 8.725 112.899 8.725C114.474 8.725 115.449 9.725 115.449 11.9V19H119.349V11.3C119.349 7.2 117.049 5.35 113.849 5.35ZM136.166 12.325C136.166 8 133.116 5.35 129.166 5.35C125.066 5.35 121.991 8.25 121.991 12.275C121.991 16.275 125.016 19.2 129.666 19.2C132.091 19.2 133.966 18.45 135.216 17.025L133.141 14.775C132.216 15.65 131.191 16.075 129.766 16.075C127.716 16.075 126.291 15.05 125.916 13.375H136.091C136.116 13.05 136.166 12.625 136.166 12.325ZM129.191 8.3C130.941 8.3 132.216 9.4 132.491 11.1H125.866C126.141 9.375 127.416 8.3 129.191 8.3Z" fill="black"/>
</svg>
