<?xml version="1.0" standalone="no"?>
<!DOCTYPE svg PUBLIC "-//W3C//DTD SVG 20010904//EN"
 "http://www.w3.org/TR/2001/REC-SVG-20010904/DTD/svg10.dtd">
<svg version="1.0" xmlns="http://www.w3.org/2000/svg"
 width="1094.000000pt" height="184.000000pt" viewBox="0 0 1094.000000 184.000000"
 preserveAspectRatio="xMidYMid meet">
<metadata>
Created by potrace 1.16, written by Peter Selinger 2001-2019
</metadata>
<g transform="translate(0.000000,184.000000) scale(0.100000,-0.100000)"
fill="#000000" stroke="none">
<path d="M925 1521 c-360 -79 -346 -75 -385 -108 -51 -42 -69 -92 -83 -223
l-13 -120 76 0 c179 0 262 -44 556 -297 328 -282 399 -332 534 -378 87 -29
235 -50 296 -40 49 7 97 42 121 88 36 71 -13 217 -108 322 -60 65 -160 118
-263 140 -38 7 -72 17 -76 22 -4 4 -28 127 -53 272 -40 234 -49 269 -74 304
-38 55 -102 87 -167 86 -28 -1 -190 -31 -361 -68z"/>
<path d="M3007 1438 c-69 -9 -150 -50 -183 -93 -30 -40 -52 -103 -60 -171 l-7
-53 -56 -3 -56 -3 -3 -87 -3 -88 61 0 60 0 0 -300 0 -300 115 0 115 0 0 300 0
300 100 0 100 0 0 90 0 90 -100 0 -100 0 0 36 c0 39 14 72 39 91 20 15 105 17
133 2 11 -6 21 -9 24 -7 2 2 16 39 31 82 30 86 30 88 -37 105 -57 15 -112 18
-173 9z"/>
<path d="M3533 1139 c-97 -9 -239 -58 -257 -88 -4 -5 12 -43 34 -83 l40 -75
62 31 c81 39 212 48 268 19 40 -21 80 -75 80 -109 0 -24 -2 -24 -102 -24 -293
-1 -417 -72 -418 -238 0 -138 103 -230 271 -240 97 -6 170 15 227 63 l42 37 0
-46 0 -46 106 0 105 0 -3 282 c-3 280 -3 284 -29 338 -47 101 -136 163 -248
175 -31 3 -67 7 -81 9 -14 1 -57 -1 -97 -5z m227 -513 c0 -79 -71 -139 -165
-139 -93 0 -147 50 -128 118 14 49 59 65 186 65 l107 0 0 -44z"/>
<path d="M4624 1139 c-68 -8 -134 -37 -176 -77 l-28 -26 0 47 0 47 -110 0
-110 0 0 -395 0 -395 115 0 115 0 0 220 c0 230 6 266 48 313 32 36 88 57 152
57 l60 0 0 110 c0 61 -1 109 -2 109 -2 -1 -31 -5 -64 -10z"/>
<path d="M5270 1143 c-78 -9 -134 -27 -175 -59 l-45 -34 0 40 0 40 -110 0
-110 0 0 -395 0 -396 113 3 112 3 5 245 c3 159 9 252 17 265 74 128 258 115
292 -20 6 -25 11 -139 11 -269 l0 -226 115 0 115 0 0 228 c1 236 7 280 47 324
30 33 74 51 128 51 62 0 99 -22 126 -74 17 -35 19 -60 19 -284 l0 -245 115 0
115 0 0 267 c0 299 -7 344 -64 423 -101 140 -355 152 -503 25 l-40 -34 -34 36
c-54 57 -164 95 -249 86z"/>
<path d="M6652 1138 c-129 -14 -237 -90 -295 -207 -30 -61 -32 -72 -32 -171 0
-96 3 -110 29 -164 34 -70 96 -136 158 -167 135 -69 302 -64 406 11 l42 30 0
-50 c0 -90 -51 -159 -134 -181 -91 -25 -269 6 -344 60 l-29 20 -41 -75 c-23
-40 -43 -79 -45 -85 -4 -18 95 -68 179 -90 96 -25 272 -30 354 -10 126 31 202
92 254 200 l31 66 3 403 3 402 -105 0 -106 0 0 -46 0 -46 -39 31 c-76 61 -169
83 -289 69z m226 -215 c95 -54 118 -197 45 -284 -77 -91 -249 -92 -325 -1 -54
64 -61 158 -18 228 55 88 196 116 298 57z"/>
<path d="M7655 1139 c-87 -8 -145 -24 -210 -56 -27 -14 -52 -27 -54 -29 -6 -6
72 -165 79 -161 115 67 240 86 323 49 49 -22 71 -49 82 -98 l6 -31 -148 -6
c-168 -6 -242 -23 -297 -69 -53 -43 -76 -95 -76 -168 0 -74 23 -124 80 -173
108 -92 354 -86 430 10 l20 26 0 -47 0 -46 111 0 111 0 -4 278 c-5 325 -9 345
-93 429 -43 43 -64 55 -121 72 -82 24 -145 29 -239 20z m225 -513 c0 -82 -72
-139 -173 -139 -88 0 -140 49 -123 117 12 50 57 66 184 66 l112 0 0 -44z"/>
<path d="M8760 1143 c-78 -9 -134 -27 -175 -59 l-45 -34 0 40 0 40 -115 0
-115 0 2 -392 3 -393 115 0 115 0 5 245 c5 230 6 247 27 280 72 116 250 94
282 -35 6 -25 11 -139 11 -269 l0 -226 115 0 115 0 0 230 c0 185 3 238 15 267
30 71 80 105 154 106 64 1 108 -25 132 -76 17 -38 19 -68 19 -284 l0 -243 115
0 115 0 0 267 c0 299 -7 344 -64 423 -101 140 -355 152 -503 25 l-40 -34 -34
36 c-54 57 -164 95 -249 86z"/>
<path d="M10160 1139 c-81 -10 -174 -56 -235 -115 -171 -166 -146 -480 48
-611 94 -63 148 -77 287 -77 92 0 137 5 170 18 52 19 150 84 150 99 0 5 -25
38 -55 73 l-56 63 -46 -29 c-89 -56 -217 -60 -299 -9 -29 18 -84 91 -84 112 0
4 135 7 300 7 l300 0 0 68 c0 167 -83 302 -223 367 -46 22 -70 27 -167 39 -14
1 -54 -1 -90 -5z m148 -184 c43 -19 79 -50 98 -87 30 -59 32 -58 -177 -58
l-191 0 7 28 c25 101 158 160 263 117z"/>
<path d="M391 954 c-141 -38 -260 -143 -337 -299 -48 -97 -49 -100 -52 -207
-4 -121 3 -143 61 -178 31 -19 56 -20 877 -19 522 1 822 5 785 10 -131 19
-259 74 -390 167 -38 27 -176 140 -305 251 -134 115 -259 215 -290 231 -118
60 -235 75 -349 44z"/>
</g>
</svg>
